<svg id="Layer_1" data-name="Layer 1" xmlns="http://www.w3.org/2000/svg" viewBox="0 0 1581.93 604.85"><defs><style>.cls-1{fill:#e6e6e6;}</style></defs><path id="path151" class="cls-1" d="M1558.42,564.7l7,.16V556.2l-7,.26.11-6.91-6.64-.13V532l-4.17-.32-.33-4.82-11.08-2.57.43-4.78,6.16.13.15-3.21,4.18-1.45,1-4,3.87-1.11L1549,480.26s14.14-16.55,13.65-16.55-8.52-10.28-8.52-10.28l-7.87,6.43L1537.59,443h-7.71l-5.57-7.45,4.51-5,.48-7.55,8.19-1.13-7.54-2.25,7.54-4.49-9.8-.33,5.63-6.58-9.16,4.66-.8-8.36-3.86,7.87-2.57-.15-5.46-4.5,2.72,7.87-5.78-.8V409l-1.38-.73-.55-21.37-3.61-5,.08-1.06,6.59-.15v-6l-1.61-2.09-4.83-.32-.47-1.74,5.3-.66v-4.82l-1.76-2.79-.17-2.36-1.92-2.24,2.75-5.78v-4.19l-11.11,14.57v6l1.93,2.27.48,1.42h-1.93l-1.93,2.58V381l2.89,1.6,0,7.44h3.68v7.48l-5.95,27.12V435.4l3.41,2.83v11.92l2.88,6.17-2.88,15.94v6.24h3.27l.56,3-.43,12.89h2.56l.1,14.21-2.66,10.18v29.77l-5.53-.12v7.89l-7.79-.09,1.73,9.52,6.57,0-7.43,13.9s-3.47-25.12-32-40.7a81.37,81.37,0,0,0-7.78-3.69c-13-16-37.67-13.05-37.67-13.05V509.34l-5.16,1.59c-1.53-5.47-4.33-8.37-6.81-9.92V411.29h-32.16v66.13h-2.2v27.75l-1.26,1.26h-8.67V250.72l-40.77-.5V456.14a32.45,32.45,0,0,0-10.57,3.44V272.37l-30-30-36,29.48.45,160.85a30.23,30.23,0,0,0-14.2,1.59V131l-20.11-.23-.36-4.16,15.71.12,4.76-2.21V121l-3.82-3.12-17-.35L1200.92,0,1198,117.6h-17.87l-3.82,2.74.35,4.16,4.16,2.09H1198v3.33h-23.13V421.53l-8.54-7.31-13.85,15.59v19h-4.33v45h-4.34v20.2h-9.27V409h-9.78V376.83H1106V409h-2.46v29h-29.34v4.78c-4-.05-6.54-.1-6.54-.1v1.62H1065V423h-5.34V413h-37.1v49.16H1009v39.55h-6.74v-7.16H990.83v-4.73h-5.4V483h-6.74v18.63H974.1V467l-9.53-32.61L955,467v32.91l-3.28.82v-95.4H902.14V417.6H895v42.1h-2.19l-3.6-17-4.63,17H872.09v-18h-9.44V429.06h-27V423H822.85v2.19h-9.46V425H803.28v35.09c-5,.2-10.5.32-11.88-.09.77,2.69-.32,10.07-.32,10.07H783.6v34.18h-6.06V467.91l-6.92-13-6.94,15.59v26h-5.12V400.92H722.9v15.33H719V449.1H706.13V402.75H683.39V365.49H654.48v18.38h-28v72.77h-2.66v29.88l-2.63,2.63V260.71h-5.29V223.13h-5.3v-15.9h-5.31V201h-5.78v-8.68l-4.82,1v-4.33l-2.89-.49s-.27-36.62,0-43.36c.3-7.56-7.62-8.28-7.62-8.28V117.61h-2.41v19c-9.28.35-9.72,7.47-9.72,7.47v48.18h-7.23V200h-5.78v7.71l-5.78.48v13.49l-4.34.48v38.06h-2.89V451.82l-4.46,3.55v3.9l-.44,0v11H534.9V362.29H505.37v116h-1.26l-13.86-13.86V370.38h-8.77v-8.09H458.39V307.78H437.92V420.29H418.8V325.24H394v145h-6.26v-8.78l-10.19.49V449.73h-.61v-7.84h-9.44v-6.74h-3V370.87H330.2v58.88h-6.7V370.87H292.78v48.76h-9.65v20l-3.45-2-4.34,5.06v7.91l-4.32.88v43.23h-6.8v-137l-2.92-2.92V339.72l-5.87-5.87V299.38l-8.24-7.92V280.7l-1.26-1.59v-8.86l-2.21-1.9V257l-3.17-.64V244.93l-1.27-1v-7.27l-1.9-1.59v-6.65l-2.53-5.38-.07-51.31v.94l-1.2,50.37H232v9.49l-4.59,9.82v8.39l-4.9,4.9v10.76h-3.25v11.63l-2.29,2.3v9.34l-1.74,1.74v9.8h-1.87V334.9h-4.7v8.6h-5.47V488.68h-6.64v-7.8h-3.82V409H130.78v91.05c-4.84.3-9.56.26-9.56-1v13.65l-2.7,2.69V470.2H101v47H92.22v-58.5H51.06v80H40.6v-41.2H0V604.85l1581.92-1c.31-31.19-23.5-39.14-23.5-39.14"/></svg>